<svg width="376" height="312" viewBox="0 0 376 312" fill="none" xmlns="http://www.w3.org/2000/svg">
<path fill-rule="evenodd" clip-rule="evenodd" d="M113.584 88.3495C168.354 78.5216 209.65 114.036 219.764 158.022C231.99 211.188 190.224 256.41 147.561 264.304C93.32 274.342 49.3089 235.464 41.3273 192.137C31.5379 139.011 69.6117 96.2397 113.584 88.3495ZM260.201 54.0167L219.357 54.6018L220.075 83.1565C210.734 79.575 207.623 70.091 182.597 58.4421C132.105 34.9418 72.8731 50.5301 38.8494 84.9464C-77.1836 202.316 91.66 381.031 218.444 270.047C273.541 221.819 259.301 139.281 260.201 54.0167Z" fill="#02204E"/>
<path fill-rule="evenodd" clip-rule="evenodd" d="M266.628 200.754C261.998 209.309 259.487 221.339 255.014 230.904C250.493 240.577 245.378 250.941 240.58 260.835C229.294 284.098 240.43 312.428 268.444 311.408C296.074 310.401 305.003 285.19 294.026 261.292C290.306 253.194 269.208 203.389 266.628 200.754Z" fill="#F37504"/>
<path fill-rule="evenodd" clip-rule="evenodd" d="M331.86 1.91889C287.69 16.481 306.862 82.1847 352.309 67.3796C393.704 53.8942 374.072 -11.9981 331.86 1.91889Z" fill="#F37504"/>
<path fill-rule="evenodd" clip-rule="evenodd" d="M304.203 79.4898C262.434 94.0561 287.268 151.66 324.144 137.123C358.314 123.652 343.546 65.7713 304.203 79.4898Z" fill="#F37504"/>
</svg>
