<svg width="1123" height="794" viewBox="0 0 1123 794" fill="none" xmlns="http://www.w3.org/2000/svg">
<path fill-rule="evenodd" clip-rule="evenodd" d="M615.502 352.557C612.169 323.855 631.662 303.557 656.577 300.23C674.406 297.848 688.765 304.316 700.485 313.88C704.38 317.06 704.949 318.286 706.689 319.714C708.307 321.043 708.553 320.88 708.704 323.41C708.811 325.208 708.674 327.608 708.676 329.48L708.677 364.601C708.732 371.898 706.353 372.695 699.921 379.623C693.624 386.404 680.63 393.207 667.342 394.138C638.907 396.129 618.424 377.717 615.502 352.557ZM708.668 291.896C704.961 290.206 695.201 277.924 672.231 273.403C629.007 264.897 583.34 295.662 583.524 348.047C583.642 381.655 603.141 404.159 626.759 414.697C639.813 420.521 658.932 422.607 674.155 419.056C686.015 416.29 692.859 412.035 701.621 405.411C703.726 403.82 706.964 399.612 708.784 398.782L708.856 416.231L738.547 416.261L738.635 220.242L708.748 220.223L708.668 291.896Z" fill="white"/>
<path fill-rule="evenodd" clip-rule="evenodd" d="M526.96 352.924C526.984 358.153 526.949 363.383 526.967 368.613C526.997 377.381 527.881 375.755 523.101 380.454C518.11 385.361 511.858 389.143 503.87 392.335C487.723 398.788 464.823 397.971 454.926 386.8C445.934 376.65 447.724 356.606 471.447 350.882C484.97 347.619 500.148 348.27 514.207 350.125C519.146 350.776 522.672 351.979 526.96 352.924ZM435.027 281.326L434.953 307.263C454.516 302.056 471.419 296.906 493.189 299.341C515.102 301.792 527.303 310.381 527.02 333.791C502.016 330.71 477.834 325.706 451.261 333.197C429.71 339.271 414.716 355.326 419.031 383.105C424.704 419.624 472.143 426.769 501.891 416.444C507.116 414.631 512.187 412.341 516.161 409.639C521.43 406.054 526.399 401.201 527.834 400.28L528.012 416.096L556.328 416.253C556.848 405.175 556.38 393.249 556.41 382.159C556.44 370.79 556.411 359.413 556.402 348.044C556.383 322.717 557.446 309.111 543.78 292.452C533.861 280.359 515.744 273.654 495.22 272.718C479.631 272.008 463.688 273.819 448.746 277.521C444.049 278.685 439.445 280.386 435.027 281.326Z" fill="white"/>
<path fill-rule="evenodd" clip-rule="evenodd" d="M951.642 300.389C980.27 296.043 1003.11 315.967 1006.39 340.113C1010.28 368.792 990.196 390.957 965.956 394.344C936.603 398.445 913.77 379.686 910.408 354.976C907.541 333.907 916.692 315.34 933.488 306.113C939.478 302.822 944.185 301.521 951.642 300.389ZM949.158 272.465C908.771 276.692 875.428 310.26 879.857 355.685C883.854 396.691 920.789 425.485 967.068 421.55C1009.11 417.974 1041.3 384.615 1036.4 338.117C1032.13 297.613 995.58 267.608 949.158 272.465Z" fill="white"/>
<path fill-rule="evenodd" clip-rule="evenodd" d="M785.777 276.168C785.128 276.988 785.697 276.752 784.273 277.105L761.547 277.274L761.367 301.351C765.509 301.575 770.018 301.423 774.204 301.421C776.208 301.42 778.225 301.447 780.226 301.407C781.744 301.376 784.923 300.708 785.72 302.06C785.631 318.386 785.73 334.722 785.714 351.052C785.687 379.612 780.437 410.439 818.179 417.488C826.724 419.084 857.086 419.746 864.678 416.94L866.033 390.832C861.609 390.845 855.005 392.071 850.209 392.462C834.949 393.709 816.928 393.003 815.253 373.649L815.147 301.828L863.334 301.836L863.411 276.544L815.14 276.44L815.071 240.527L785.832 240.297L785.777 276.168Z" fill="white"/>
<path fill-rule="evenodd" clip-rule="evenodd" d="M799.734 501.72L806.28 501.746L806.296 474.848C808.885 477.17 813.232 484.179 815.713 487.665C817.337 489.945 817.847 489.517 821.2 489.333C823.842 486.043 830.473 476.467 832.817 474.442C832.862 479.111 832.302 498.921 833.218 501.756L839.105 501.83L839.326 462.05C835.06 461.44 833.977 461.43 832.031 464.047L819.374 480.967C817.424 479.717 806.475 463.099 805.847 461.952L799.843 461.891L799.734 501.72Z" fill="white"/>
<path fill-rule="evenodd" clip-rule="evenodd" d="M888.252 501.845L893.881 501.812C894.803 499.062 894.243 479.027 894.282 474.457C896.63 475.896 912.107 497.588 915.349 500.923C916.796 502.41 918.807 501.893 921.032 501.808C921.804 499.225 921.612 466.436 921.253 461.933L914.938 461.931L914.824 489.178C911.574 487.132 895.071 462.466 892.639 461.855L888.006 461.877C887.649 466.626 887.349 499.168 888.252 501.845Z" fill="white"/>
<path fill-rule="evenodd" clip-rule="evenodd" d="M992.874 468.316C994.979 467.897 1002.12 467.91 1004.42 468.142C1008.04 468.507 1010.63 470.147 1010.6 473.957C1010.52 483.234 993.347 479.996 992.762 479.786L992.874 468.316ZM986.648 501.822C995.81 502 991.784 502.606 992.866 486.457L1002.03 486.405C1003.64 488.194 1010.65 499.475 1011.4 501.779L1018.95 501.71C1016.69 495.91 1012.23 490.665 1009.67 485.504C1011.44 484.08 1012.29 484.004 1013.91 482.328C1019.15 476.878 1017.61 469.257 1013.84 465.667C1008.25 460.342 995.571 461.749 986.448 461.946C986.036 466.057 985.934 499.383 986.648 501.822Z" fill="white"/>
<path fill-rule="evenodd" clip-rule="evenodd" d="M936.701 495.534C936.407 490.825 936.077 471.942 936.918 468.17C944.767 468.075 958.069 467.254 957.868 481.995C957.679 495.855 945.596 495.773 936.701 495.534ZM930.172 501.722C937.754 502.253 948.514 502.398 954.571 499.278C967.877 492.425 967.903 471.397 954.778 464.509C948.582 461.258 938.09 461.491 930.293 461.956L930.172 501.722Z" fill="white"/>
<path fill-rule="evenodd" clip-rule="evenodd" d="M709.033 502.06L709.223 484.78C711.492 483.938 725.613 484.108 728.573 484.472L728.74 501.566L734.71 501.786L734.966 462.062L728.63 461.92L728.44 478.225L709.325 478.356L709.265 461.859L702.977 461.952C702.634 466.837 702.363 498.829 703.218 501.769L709.033 502.06Z" fill="white"/>
<path fill-rule="evenodd" clip-rule="evenodd" d="M857.169 485.928C858.912 481.324 861.237 476.679 863.284 471.92L869.074 485.999L860.014 486.125L857.169 485.928ZM843.641 501.792C853.456 501.854 848.822 502.622 854.541 492.192L871.996 492.133L876.157 501.874L882.448 501.84C882.845 498.654 868.043 468.028 866.032 461.91L861.019 461.84C859.289 464.397 844.21 498.899 843.641 501.792Z" fill="white"/>
<path fill-rule="evenodd" clip-rule="evenodd" d="M678.865 472.489L684.766 485.987L672.775 486.111L678.233 473.33C678.887 472.318 678.577 472.825 678.865 472.489ZM659.578 501.754L665.574 501.829C666.915 499.832 668.826 494.953 670.006 492.222L687.463 492.112L691.556 501.833L698.092 501.8C698.237 498.903 683.377 467.865 681.444 461.857L676.17 461.793C674.116 467.297 659.179 499.333 659.578 501.754Z" fill="white"/>
<path fill-rule="evenodd" clip-rule="evenodd" d="M758.911 472.118L764.687 485.996L752.684 485.963L758.911 472.118ZM739.433 501.701L745.6 501.879L750.141 492.154L767.337 492.078L771.548 501.853L778.006 501.816C778.296 499.522 771.258 485.009 769.933 481.753C768.495 478.218 766.893 474.911 765.515 471.636C760.761 460.342 762.424 461.823 756.156 461.868C754.145 467.454 739.165 499.26 739.433 501.701Z" fill="white"/>
<path fill-rule="evenodd" clip-rule="evenodd" d="M543.353 485.99C543.938 483.494 548.148 473.37 549.395 472.114C550.653 474.079 554.597 483.585 555.099 486.046L543.353 485.99ZM530.022 501.818L536.096 501.825L540.452 492.185L557.94 492.158L562.025 501.637L568.788 501.847C567.786 497.666 562.422 486.272 560.421 481.509C557.85 475.389 553.982 467.974 552.038 461.817L546.71 461.793C544.645 467.206 529.649 499.303 530.022 501.818Z" fill="white"/>
<path fill-rule="evenodd" clip-rule="evenodd" d="M630.188 492.007C628.867 493.126 627.563 494.818 626.617 496.545C629.097 500.742 641.326 503.918 649.043 501.398C656.038 499.114 660.272 490.055 654.532 483.75C649.288 477.99 636.987 478.637 635.088 474.578C633 470.115 637.727 467.802 641.712 467.687C648.515 467.492 649.46 470.276 653.414 471.087L655.948 466.007C651.167 461.399 640.947 459.542 633.916 463.144C627.189 466.59 625.068 476.716 632.27 481.428C637.621 484.929 651.206 484.273 650.222 491.438C649.678 495.402 644.933 496.124 640.711 495.893C636.324 495.654 633.357 493.385 630.188 492.007Z" fill="white"/>
<path fill-rule="evenodd" clip-rule="evenodd" d="M621.225 461.918L614.943 462.014C614.21 478.546 618.56 495.511 605.593 495.945C592.208 496.393 596.532 480.096 595.913 462.035L589.57 461.887C589.05 468.468 588.956 483.079 589.601 489.507C591.296 506.42 618.077 507.182 621.085 489.959C621.969 484.903 621.629 467.554 621.225 461.918Z" fill="white"/>
<path fill-rule="evenodd" clip-rule="evenodd" d="M478.318 468.159C485.43 468.028 495.468 466.597 495.521 474.444C495.573 482.136 485.211 481.192 478.132 480.786L478.318 468.159ZM471.555 501.717L478.134 501.775L478.099 486.953C484.266 486.741 490.661 487.783 495.814 485.12C500.16 482.875 503.19 478.194 501.871 471.822C499.358 459.685 483.966 461.469 471.666 461.93L471.555 501.717Z" fill="white"/>
<path fill-rule="evenodd" clip-rule="evenodd" d="M450.162 497.043C449.591 494.408 448.085 493.933 446.521 492.475C444.087 493.406 442.839 495.01 439.668 495.669C419.18 499.925 417.365 464.848 439.007 467.82C442.661 468.322 444.188 469.862 446.641 470.858L450.306 467.04C446.251 458.678 417.303 456.446 416.697 481.488C416.11 505.705 444.357 505.654 450.162 497.043Z" fill="white"/>
<path fill-rule="evenodd" clip-rule="evenodd" d="M503.602 468.007L515.549 468.159L515.619 501.772C517.772 501.839 520.102 502.088 522.083 501.411L522.118 468.202L534.063 468.136C534.758 466.274 534.551 463.91 534.401 461.867L503.762 461.882L503.602 468.007Z" fill="white"/>
<path fill-rule="evenodd" clip-rule="evenodd" d="M1030.9 501.796C1031.71 499.284 1031.46 466.589 1031.15 461.898L1024.83 461.948C1024.31 472.101 1024.84 485.683 1024.74 496.547C1024.67 502.971 1024.08 502.062 1030.9 501.796Z" fill="white"/>
<path fill-rule="evenodd" clip-rule="evenodd" d="M456.679 501.852L462.336 501.802C463.25 499.394 463.044 466.403 462.655 461.898L456.481 461.918C456.11 466.568 455.798 499.275 456.679 501.852Z" fill="white"/>
<path fill-rule="evenodd" clip-rule="evenodd" d="M971.609 501.822L977.262 501.846C978.074 499.472 977.935 466.121 977.513 461.879L971.35 461.897C970.985 466.686 970.654 499.134 971.609 501.822Z" fill="white"/>
<path fill-rule="evenodd" clip-rule="evenodd" d="M785.724 302.06C784.928 300.708 781.748 301.376 780.231 301.407C778.229 301.447 776.212 301.42 774.209 301.421C770.023 301.423 765.514 301.575 761.372 301.351L761.552 277.274L784.277 277.105C785.702 276.752 785.132 276.988 785.782 276.168L761.229 276.383L760.969 301.9L785.724 302.06Z" fill="white"/>
<path fill-rule="evenodd" clip-rule="evenodd" d="M709.031 502.06C710.337 500.895 709.499 503.277 709.998 500.094L709.977 485.022L728.159 484.887C728.136 487.795 728.199 490.662 728.191 493.533C728.186 495.278 727.603 500.276 728.738 501.565L728.571 484.471C725.611 484.108 711.491 483.938 709.221 484.78L709.031 502.06Z" fill="white"/>
<path fill-rule="evenodd" clip-rule="evenodd" d="M164.107 278.967C218.878 269.139 260.173 304.653 270.287 348.639C282.513 401.806 240.747 447.027 198.085 454.922C143.843 464.959 99.8323 426.081 91.8507 382.754C82.0614 329.628 120.135 286.857 164.107 278.967ZM310.724 244.634L269.881 245.219L270.598 273.774C261.258 270.192 258.147 260.708 233.121 249.059C182.629 225.559 123.397 241.147 89.3729 275.564C-26.6602 392.933 142.183 571.648 268.968 460.665C324.064 412.436 309.824 329.898 310.724 244.634Z" fill="white"/>
<path fill-rule="evenodd" clip-rule="evenodd" d="M317.151 391.371C312.522 399.926 310.011 411.956 305.537 421.521C301.017 431.194 295.901 441.558 291.103 451.452C279.818 474.715 290.953 503.045 318.968 502.025C346.598 501.018 355.526 475.808 344.55 451.909C340.83 443.811 319.732 394.007 317.151 391.371Z" fill="white"/>
<path fill-rule="evenodd" clip-rule="evenodd" d="M382.384 192.536C338.213 207.098 357.385 272.802 402.832 257.997C444.228 244.511 424.595 178.619 382.384 192.536Z" fill="white"/>
<path fill-rule="evenodd" clip-rule="evenodd" d="M354.726 270.107C312.958 284.673 337.791 342.277 374.668 327.74C408.837 314.27 394.069 256.388 354.726 270.107Z" fill="white"/>
</svg>
