<svg width="987" height="312" viewBox="0 0 987 312" fill="none" xmlns="http://www.w3.org/2000/svg">
<path fill-rule="evenodd" clip-rule="evenodd" d="M564.978 161.94C561.646 133.238 581.139 112.94 606.054 109.612C623.883 107.231 638.241 113.698 649.961 123.263C653.857 126.443 654.426 127.669 656.165 129.097C657.784 130.426 658.03 130.263 658.181 132.793C658.288 134.591 658.151 136.991 658.152 138.863L658.154 173.983C658.209 181.281 655.83 182.078 649.397 189.006C643.1 195.787 630.106 202.59 616.818 203.521C588.383 205.512 567.9 187.1 564.978 161.94ZM658.144 101.279C654.438 99.5887 644.677 87.3064 621.707 82.7857C578.484 74.2795 532.816 105.045 533.001 157.429C533.118 191.038 552.618 213.542 576.235 224.08C589.289 229.904 608.409 231.989 623.632 228.439C635.491 225.673 642.335 221.418 651.098 214.794C653.203 213.202 656.44 208.995 658.261 208.164L658.333 225.614L688.023 225.644L688.112 29.6244L658.225 29.6055L658.144 101.279Z" fill="#02204E"/>
<path fill-rule="evenodd" clip-rule="evenodd" d="M476.436 162.307C476.46 167.536 476.425 172.766 476.443 177.996C476.473 186.764 477.357 185.137 472.578 189.837C467.586 194.744 461.335 198.526 453.347 201.718C437.199 208.171 414.299 207.354 404.403 196.183C395.411 186.033 397.2 165.989 420.924 160.265C434.446 157.002 449.624 157.652 463.684 159.508C468.622 160.159 472.149 161.362 476.436 162.307ZM384.504 90.7089L384.429 116.646C403.992 111.439 420.896 106.289 442.665 108.724C464.579 111.175 476.78 119.763 476.497 143.173C451.492 140.093 427.311 135.089 400.737 142.58C379.186 148.654 364.192 164.708 368.508 192.488C374.181 229.007 421.62 236.152 451.368 225.827C456.592 224.014 461.664 221.724 465.637 219.022C470.907 215.437 475.876 210.584 477.311 209.662L477.488 225.479L505.804 225.635C506.324 214.558 505.857 202.632 505.886 191.541C505.917 180.173 505.888 168.796 505.879 157.427C505.86 132.1 506.923 118.493 493.257 101.834C483.337 89.7418 465.22 83.0365 444.696 82.1011C429.107 81.3909 413.164 83.2017 398.222 86.9041C393.526 88.0682 388.921 89.7686 384.504 90.7089Z" fill="#02204E"/>
<path fill-rule="evenodd" clip-rule="evenodd" d="M901.118 109.772C929.747 105.426 952.587 125.349 955.866 149.495C959.761 178.175 939.673 200.34 915.433 203.727C886.079 207.827 863.247 189.069 859.885 164.359C857.018 143.29 866.169 124.723 882.964 115.496C888.955 112.205 893.662 110.903 901.118 109.772ZM898.635 81.8482C858.247 86.0745 824.905 119.643 829.333 165.068C833.331 206.074 870.266 234.868 916.545 230.932C958.591 227.357 990.772 193.997 985.874 147.5C981.607 106.996 945.056 76.9904 898.635 81.8482Z" fill="#02204E"/>
<path fill-rule="evenodd" clip-rule="evenodd" d="M735.254 85.5508C734.604 86.3706 735.174 86.1344 733.75 86.4881L711.024 86.6571L710.844 110.734C714.986 110.958 719.495 110.806 723.681 110.804C725.684 110.803 727.702 110.83 729.703 110.789C731.22 110.759 734.4 110.091 735.196 111.442C735.108 127.769 735.206 144.105 735.191 160.435C735.163 188.995 729.913 219.822 767.656 226.871C776.2 228.466 806.562 229.129 814.154 226.323L815.509 200.215C811.085 200.228 804.482 201.453 799.686 201.845C784.425 203.091 766.404 202.385 764.729 183.032L764.623 111.211L812.81 111.219L812.888 85.9269L764.616 85.8226L764.548 49.9099L735.308 49.6797L735.254 85.5508Z" fill="#02204E"/>
<path fill-rule="evenodd" clip-rule="evenodd" d="M749.211 311.103L755.756 311.129L755.773 284.231C758.362 286.553 762.708 293.562 765.19 297.047C766.813 299.328 767.324 298.899 770.676 298.716C773.318 295.426 779.95 285.85 782.293 283.825C782.338 288.494 781.778 308.304 782.695 311.139L788.582 311.212L788.802 271.433C784.536 270.822 783.454 270.813 781.508 273.43L768.85 290.349C766.901 289.099 755.951 272.482 755.324 271.335L749.32 271.274L749.211 311.103Z" fill="#F8730A"/>
<path fill-rule="evenodd" clip-rule="evenodd" d="M837.729 311.228L843.358 311.195C844.28 308.445 843.719 288.409 843.758 283.84C846.107 285.278 861.583 306.971 864.826 310.306C866.272 311.793 868.283 311.276 870.508 311.191C871.28 308.608 871.089 275.819 870.729 271.316L864.415 271.314L864.301 298.561C861.05 296.515 844.547 271.849 842.115 271.238L837.483 271.26C837.125 276.009 836.826 308.551 837.729 311.228Z" fill="#F9740B"/>
<path fill-rule="evenodd" clip-rule="evenodd" d="M942.351 277.699C944.456 277.28 951.599 277.293 953.894 277.524C957.512 277.889 960.109 279.529 960.077 283.34C959.998 292.617 942.823 289.379 942.238 289.169L942.351 277.699ZM936.125 311.205C945.287 311.383 941.26 311.989 942.342 295.84L951.505 295.787C953.113 297.577 960.126 308.857 960.881 311.162L968.425 311.093C966.166 305.293 961.707 300.048 959.143 294.887C960.917 293.463 961.77 293.387 963.383 291.711C968.627 286.26 967.087 278.64 963.317 275.05C957.722 269.725 945.048 271.132 935.925 271.329C935.512 275.44 935.411 308.766 936.125 311.205Z" fill="#F8710A"/>
<path fill-rule="evenodd" clip-rule="evenodd" d="M886.177 304.917C885.884 300.208 885.554 281.325 886.395 277.553C894.243 277.458 907.545 276.637 907.344 291.378C907.155 305.238 895.072 305.156 886.177 304.917ZM879.648 311.105C887.231 311.635 897.99 311.781 904.048 308.661C917.353 301.807 917.38 280.78 904.254 273.892C898.059 270.641 887.567 270.874 879.77 271.339L879.648 311.105Z" fill="#F8730A"/>
<path fill-rule="evenodd" clip-rule="evenodd" d="M658.509 311.443L658.699 294.163C660.969 293.321 675.089 293.491 678.049 293.854L678.217 310.948L684.186 311.168L684.443 271.445L678.107 271.303L677.917 287.608L658.802 287.739L658.742 271.242L652.453 271.335C652.111 276.22 651.84 308.212 652.695 311.151L658.509 311.443Z" fill="#F8710A"/>
<path fill-rule="evenodd" clip-rule="evenodd" d="M806.646 295.31C808.389 290.707 810.713 286.062 812.761 281.303L818.55 295.382L809.491 295.508L806.646 295.31ZM793.117 311.175C802.933 311.237 798.298 312.005 804.018 301.575L821.473 301.516L825.634 311.257L831.925 311.223C832.322 308.036 817.519 277.411 815.508 271.293L810.495 271.223C808.766 273.78 793.687 308.282 793.117 311.175Z" fill="#F9740B"/>
<path fill-rule="evenodd" clip-rule="evenodd" d="M628.342 281.872L634.242 295.37L622.252 295.494L627.71 282.712C628.363 281.701 628.054 282.208 628.342 281.872ZM609.055 311.137L615.05 311.212C616.391 309.214 618.302 304.335 619.482 301.605L636.939 301.495L641.033 311.216L647.568 311.183C647.713 308.285 632.854 277.248 630.92 271.24L625.646 271.176C623.593 276.68 608.656 308.716 609.055 311.137Z" fill="#F8730A"/>
<path fill-rule="evenodd" clip-rule="evenodd" d="M708.388 281.5L714.164 295.378L702.161 295.346L708.388 281.5ZM688.91 311.083L695.077 311.262L699.618 301.537L716.813 301.46L721.025 311.236L727.482 311.199C727.773 308.905 720.735 294.392 719.41 291.136C717.971 287.601 716.37 284.293 714.991 281.018C710.237 269.725 711.901 271.206 705.633 271.251C703.621 276.837 688.642 308.643 688.91 311.083Z" fill="#F8730A"/>
<path fill-rule="evenodd" clip-rule="evenodd" d="M492.829 295.373C493.415 292.877 497.624 282.753 498.872 281.497C500.13 283.462 504.074 292.968 504.576 295.429L492.829 295.373ZM479.499 311.201L485.573 311.208L489.929 301.568L507.417 301.541L511.501 311.02L518.264 311.23C517.263 307.049 511.899 295.655 509.897 290.892C507.326 284.772 503.458 277.356 501.514 271.2L496.186 271.176C494.122 276.589 479.126 308.686 479.499 311.201Z" fill="#F8710A"/>
<path fill-rule="evenodd" clip-rule="evenodd" d="M579.664 301.39C578.343 302.508 577.039 304.201 576.094 305.927C578.573 310.125 590.803 313.301 598.52 310.781C605.515 308.497 609.749 299.438 604.008 293.133C598.765 287.373 586.464 288.02 584.564 283.961C582.477 279.498 587.204 277.184 591.188 277.07C597.991 276.875 598.937 279.659 602.891 280.47L605.424 275.39C600.643 270.782 590.424 268.925 583.393 272.527C576.666 275.973 574.545 286.098 581.747 290.811C587.097 294.312 600.683 293.656 599.699 300.82C599.155 304.784 594.409 305.506 590.188 305.276C585.8 305.037 582.833 302.768 579.664 301.39Z" fill="#F8730A"/>
<path fill-rule="evenodd" clip-rule="evenodd" d="M570.702 271.301L564.419 271.397C563.687 287.929 568.037 304.894 555.07 305.328C541.685 305.776 546.009 289.479 545.39 271.418L539.047 271.27C538.527 277.851 538.433 292.462 539.077 298.89C540.773 315.803 567.554 316.565 570.562 299.342C571.445 294.285 571.106 276.937 570.702 271.301Z" fill="#F9740B"/>
<path fill-rule="evenodd" clip-rule="evenodd" d="M427.794 277.541C434.906 277.411 444.944 275.98 444.998 283.827C445.049 291.519 434.687 290.575 427.608 290.168L427.794 277.541ZM421.031 311.1L427.611 311.158L427.575 296.335C433.743 296.123 440.137 297.166 445.291 294.503C449.637 292.258 452.667 287.577 451.348 281.205C448.835 269.068 433.443 270.852 421.143 271.313L421.031 311.1Z" fill="#F8710A"/>
<path fill-rule="evenodd" clip-rule="evenodd" d="M399.638 306.426C399.067 303.791 397.562 303.316 395.997 301.858C393.564 302.789 392.315 304.393 389.145 305.052C368.657 309.308 366.842 274.231 388.484 277.203C392.138 277.705 393.664 279.245 396.117 280.24L399.782 276.423C395.728 268.061 366.779 265.829 366.173 290.87C365.586 315.088 393.834 315.036 399.638 306.426Z" fill="#F8710A"/>
<path fill-rule="evenodd" clip-rule="evenodd" d="M453.078 277.39L465.026 277.542L465.096 311.155C467.249 311.222 469.579 311.471 471.559 310.794L471.594 277.585L483.54 277.518C484.235 275.657 484.027 273.293 483.878 271.25L453.238 271.265L453.078 277.39Z" fill="#F8710A"/>
<path fill-rule="evenodd" clip-rule="evenodd" d="M980.377 311.179C981.191 308.666 980.935 275.972 980.631 271.281L974.311 271.331C973.791 281.484 974.32 295.066 974.212 305.93C974.148 312.353 973.558 311.445 980.377 311.179Z" fill="#F9740B"/>
<path fill-rule="evenodd" clip-rule="evenodd" d="M406.155 311.235L411.812 311.184C412.726 308.777 412.521 275.785 412.131 271.281L405.958 271.301C405.586 275.951 405.274 308.657 406.155 311.235Z" fill="#F9740B"/>
<path fill-rule="evenodd" clip-rule="evenodd" d="M921.086 311.205L926.738 311.229C927.55 308.855 927.412 275.504 926.99 271.262L920.826 271.279C920.462 276.069 920.131 308.517 921.086 311.205Z" fill="#F9740B"/>
<path fill-rule="evenodd" clip-rule="evenodd" d="M735.201 111.442C734.404 110.091 731.225 110.759 729.707 110.789C727.706 110.83 725.689 110.803 723.685 110.804C719.499 110.806 714.99 110.958 710.848 110.734L711.028 86.657L733.754 86.4881C735.179 86.1343 734.609 86.3706 735.258 85.5508L710.705 85.7658L710.445 111.283L735.201 111.442Z" fill="#394C73"/>
<path fill-rule="evenodd" clip-rule="evenodd" d="M658.508 311.443C659.814 310.278 658.976 312.66 659.475 309.477L659.453 294.404L677.636 294.27C677.613 297.178 677.676 300.045 677.668 302.916C677.663 304.661 677.079 309.659 678.215 310.948L678.048 293.854C675.088 293.49 660.967 293.32 658.698 294.163L658.508 311.443Z" fill="#FACBA3"/>
<path fill-rule="evenodd" clip-rule="evenodd" d="M113.584 88.3495C168.354 78.5216 209.65 114.036 219.764 158.022C231.99 211.188 190.224 256.41 147.561 264.304C93.32 274.342 49.3089 235.464 41.3273 192.137C31.5379 139.011 69.6117 96.2397 113.584 88.3495ZM260.201 54.0167L219.357 54.6018L220.075 83.1565C210.734 79.575 207.623 70.091 182.597 58.4421C132.105 34.9418 72.8731 50.5301 38.8494 84.9464C-77.1836 202.316 91.66 381.031 218.444 270.047C273.541 221.819 259.301 139.281 260.201 54.0167Z" fill="#02204E"/>
<path fill-rule="evenodd" clip-rule="evenodd" d="M266.628 200.754C261.998 209.309 259.487 221.339 255.014 230.904C250.493 240.577 245.378 250.941 240.58 260.835C229.294 284.098 240.43 312.428 268.444 311.408C296.074 310.401 305.003 285.19 294.026 261.292C290.306 253.194 269.208 203.389 266.628 200.754Z" fill="#F37504"/>
<path fill-rule="evenodd" clip-rule="evenodd" d="M331.86 1.91889C287.69 16.481 306.862 82.1847 352.309 67.3796C393.704 53.8942 374.072 -11.9981 331.86 1.91889Z" fill="#F37504"/>
<path fill-rule="evenodd" clip-rule="evenodd" d="M304.203 79.4898C262.434 94.0561 287.268 151.66 324.144 137.123C358.314 123.652 343.546 65.7713 304.203 79.4898Z" fill="#F37504"/>
</svg>
