<?xml version="1.0" encoding="UTF-8"?>
<!DOCTYPE svg PUBLIC "-//W3C//DTD SVG 1.1//EN" "http://www.w3.org/Graphics/SVG/1.1/DTD/svg11.dtd">
<!-- Creator: CorelDRAW 2018 (64-Bit) -->
<svg xmlns="http://www.w3.org/2000/svg" xml:space="preserve" width="297mm" height="210mm" version="1.1" style="shape-rendering:geometricPrecision; text-rendering:geometricPrecision; image-rendering:optimizeQuality; fill-rule:evenodd; clip-rule:evenodd"
viewBox="0 0 29700 21000"
 xmlns:xlink="http://www.w3.org/1999/xlink">
 <defs>
  <style type="text/css">
   <![CDATA[
    .fil0 {fill:#02204E}
    .fil6 {fill:#02204E}
    .fil4 {fill:#394C73}
    .fil7 {fill:#F37504}
    .fil3 {fill:#F8710A}
    .fil1 {fill:#F8730A}
    .fil2 {fill:#F9740B}
    .fil5 {fill:#FACBA3}
   ]]>
  </style>
 </defs>
 <g id="Layer_x0020_1">
  <metadata id="CorelCorpID_0Corel-Layer"/>
  <g id="_2742622320704">
   <g>
    <path class="fil0" d="M16285.09 9328.06c-88.18,-759.42 427.58,-1296.47 1086.79,-1384.51 471.72,-63 851.63,108.11 1161.72,361.18 103.07,84.12 118.12,116.56 164.14,154.34 42.83,35.16 49.34,30.85 53.33,97.8 2.83,47.57 -0.79,111.06 -0.76,160.59l0.04 929.24c1.46,193.08 -61.48,214.16 -231.68,397.48 -166.6,179.41 -510.4,359.41 -861.98,384.03 -752.34,52.69 -1294.29,-434.46 -1371.6,-1100.15zm2465.02 -1605c-98.07,-44.72 -356.32,-369.69 -964.07,-489.3 -1143.62,-225.06 -2351.91,588.95 -2347.03,1974.95 3.12,889.23 519.04,1484.64 1143.92,1763.45 345.39,154.1 851.25,209.28 1254.03,115.34 313.78,-73.19 494.87,-185.76 726.71,-361.03 55.69,-42.1 141.35,-153.43 189.52,-175.4l1.9 461.69 785.56 0.79 2.34 -5186.35 -790.75 -0.5 -2.13 1896.36z"/>
    <path class="fil0" d="M13942.4 9337.73c0.63,138.34 -0.3,276.73 0.18,415.1 0.8,231.98 24.19,188.95 -102.27,313.29 -132.07,129.84 -297.47,229.89 -508.83,314.36 -427.23,170.73 -1033.13,149.11 -1294.97,-146.45 -237.92,-268.55 -190.57,-798.88 437.12,-950.33 357.78,-86.33 759.37,-69.13 1131.36,-20.04 130.66,17.24 223.96,49.05 337.41,74.07zm-2432.39 -1894.37l-1.97 686.25c517.61,-137.76 964.85,-274.03 1540.83,-209.6 579.79,64.85 902.62,292.08 895.13,911.47 -661.58,-81.5 -1301.38,-213.9 -2004.47,-15.71 -570.21,160.72 -966.92,585.49 -852.74,1320.49 150.1,966.24 1405.26,1155.28 2192.34,882.1 138.23,-47.97 272.41,-108.57 377.54,-180.06 139.42,-94.84 270.9,-223.24 308.86,-247.63l4.7 418.48 749.19 4.14c13.76,-293.1 1.4,-608.64 2.18,-902.07 0.8,-300.8 0.04,-601.81 -0.2,-902.62 -0.51,-670.11 27.62,-1030.11 -333.96,-1470.88 -262.46,-319.95 -741.8,-497.36 -1284.83,-522.11 -412.46,-18.79 -834.28,29.12 -1229.62,127.08 -124.26,30.8 -246.09,75.79 -362.98,100.67z"/>
    <path class="fil0" d="M25178.94 7947.79c757.46,-114.99 1361.78,412.16 1448.54,1051.02 103.05,758.82 -428.45,1345.27 -1069.81,1434.87 -776.64,108.5 -1380.75,-387.82 -1469.7,-1041.61 -75.85,-557.44 166.26,-1048.69 610.64,-1292.82 158.51,-87.08 283.04,-121.52 480.33,-151.46zm-65.71 -738.81c-1068.59,111.82 -1950.78,999.98 -1833.6,2201.85 105.77,1084.96 1083.01,1846.79 2307.47,1742.67 1112.48,-94.61 1963.92,-977.24 1834.33,-2207.48 -112.88,-1071.67 -1079.97,-1865.57 -2308.2,-1737.04z"/>
    <path class="fil0" d="M20790.41 7306.93c-17.19,21.69 -2.11,15.44 -39.8,24.8l-601.28 4.47 -4.77 637.03c109.59,5.94 228.89,1.9 339.65,1.85 53.01,-0.02 106.38,0.69 159.33,-0.38 40.15,-0.81 124.27,-18.48 145.35,17.28 -2.35,431.97 0.26,864.2 -0.15,1296.26 -0.73,755.64 -139.63,1571.28 858.97,1757.79 226.07,42.21 1029.4,59.73 1230.28,-14.5l35.85 -690.77c-117.06,0.34 -291.77,32.76 -418.67,43.12 -403.77,32.98 -880.57,14.3 -924.89,-497.76l-2.8 -1900.26 1274.95 0.2 2.04 -669.18 -1277.18 -2.76 -1.81 -950.19 -773.63 -6.09 -1.44 949.09z"/>
    <path class="fil1" d="M21159.55 13274.67l173.18 0.68 0.44 -711.67c68.49,61.44 183.5,246.87 249.16,339.1 42.95,60.33 56.46,49 145.16,44.15 69.9,-87.06 245.36,-340.41 307.37,-393.99 1.19,123.53 -13.63,647.66 10.62,722.68l155.75 1.94 5.84 -1052.5c-112.87,-16.15 -141.51,-16.4 -193,52.84l-334.9 447.66c-51.58,-33.07 -341.28,-472.75 -357.88,-503.09l-158.86 -1.61 -2.88 1053.81z"/>
    <path class="fil2" d="M23501.58 13277.93l148.94 -0.87c24.4,-72.76 9.57,-602.86 10.6,-723.77 62.14,38.07 471.62,612.02 557.41,700.25 38.27,39.35 91.47,25.67 150.35,23.43 20.42,-68.35 15.35,-935.9 5.84,-1055.04l-167.07 -0.06 -3.01 720.93c-86.01,-54.15 -522.65,-706.76 -587,-722.92l-122.57 0.57c-9.45,125.66 -17.38,986.65 6.51,1057.48z"/>
    <path class="fil3" d="M26269.87 12390.88c55.69,-11.08 244.68,-10.74 305.4,-4.62 95.74,9.66 164.45,53.05 163.6,153.88 -2.1,245.45 -456.51,159.78 -471.99,154.21l2.99 -303.47zm-164.74 886.51c242.42,4.71 135.88,20.74 164.51,-406.53l242.43 -1.39c42.54,47.35 228.09,345.81 248.06,406.79l199.61 -1.83c-59.76,-153.47 -177.74,-292.24 -245.59,-428.78 46.95,-37.68 69.51,-39.69 112.18,-84.04 138.75,-144.21 98.02,-345.83 -1.75,-440.81 -148.02,-140.9 -483.36,-103.67 -724.74,-98.46 -10.91,108.77 -13.6,990.52 5.29,1055.05z"/>
    <path class="fil1" d="M24783.6 13111c-7.76,-124.61 -16.49,-624.21 5.75,-724.01 207.67,-2.51 559.61,-24.24 554.3,365.79 -5.01,366.7 -324.7,364.54 -560.05,358.22zm-172.74 163.71c200.61,14.04 485.29,17.89 645.57,-64.66 352.04,-181.33 352.74,-737.69 5.46,-919.92 -163.92,-86.02 -441.53,-79.86 -647.82,-67.55l-3.21 1052.13z"/>
    <path class="fil3" d="M18759.71 13283.62l5.03 -457.19c60.04,-22.29 433.65,-17.79 511.97,-8.17l4.42 452.28 157.95 5.82 6.79 -1051.02 -167.65 -3.76 -5.02 431.42 -505.75 3.46 -1.58 -436.48 -166.39 2.45c-9.06,129.26 -16.23,975.7 6.39,1053.48l153.84 7.71z"/>
    <path class="fil2" d="M22679.31 12856.82c46.11,-121.8 107.61,-244.7 161.78,-370.62l153.19 372.52 -239.7 3.32 -75.27 -5.22zm-357.95 419.76c259.7,1.63 137.08,21.94 288.41,-254l461.83 -1.56 110.1 257.73 166.44 -0.9c10.51,-84.32 -381.14,-894.61 -434.35,-1056.49l-132.63 -1.86c-45.76,67.65 -444.73,980.53 -459.8,1057.08z"/>
    <path class="fil1" d="M17961.54 12501.26l156.12 357.13 -317.25 3.27 144.41 -338.17c17.29,-26.76 9.11,-13.35 16.72,-22.23zm-510.3 774.3l158.63 1.97c35.48,-52.84 86.04,-181.93 117.26,-254.18l461.89 -2.9 108.31 257.19 172.92 -0.86c3.83,-76.67 -389.33,-897.87 -440.48,-1056.83l-139.55 -1.7c-54.33,145.63 -449.53,993.26 -438.98,1057.31z"/>
    <path class="fil1" d="M20079.56 12491.46l152.83 367.19 -317.58 -0.87 164.75 -366.32zm-515.35 782.72l163.17 4.73 120.14 -257.31 454.97 -2.03 111.43 258.64 170.85 -0.97c7.69,-60.71 -178.52,-444.7 -213.58,-530.83 -38.06,-93.53 -80.43,-181.05 -116.9,-267.7 -125.79,-298.82 -81.77,-259.62 -247.61,-258.43 -53.23,147.79 -449.56,989.32 -442.47,1053.9z"/>
    <path class="fil3" d="M14376.15 12858.48c15.49,-66.05 126.86,-333.9 159.87,-367.15 33.29,52 137.63,303.51 150.92,368.63l-310.79 -1.48zm-352.7 418.78l160.7 0.19 115.25 -255.06 462.71 -0.73 108.07 250.8 178.93 5.56c-26.5,-110.62 -168.42,-412.09 -221.37,-538.11 -68.03,-161.91 -170.37,-358.12 -221.8,-521.02l-140.97 -0.63c-54.63,143.22 -451.4,992.46 -441.52,1059z"/>
    <path class="fil1" d="M16673.65 13017.62c-34.95,29.6 -69.45,74.38 -94.47,120.06 65.61,111.06 389.17,195.1 593.35,128.42 185.08,-60.43 297.11,-300.12 145.22,-466.95 -138.73,-152.39 -464.2,-135.27 -514.45,-242.66 -55.24,-118.1 69.83,-179.3 175.25,-182.33 180,-5.16 205.02,68.49 309.63,89.96l67.04 -134.42c-126.5,-121.92 -396.89,-171.04 -582.92,-75.73 -177.98,91.17 -234.11,359.07 -43.55,483.76 141.56,92.63 501.02,75.27 474.98,264.83 -14.4,104.88 -139.95,123.98 -251.64,117.89 -116.09,-6.33 -194.59,-66.36 -278.44,-102.83z"/>
    <path class="fil2" d="M16436.49 12221.5l-166.22 2.55c-19.38,437.4 95.71,886.28 -247.37,897.76 -354.14,11.85 -239.74,-419.34 -256.12,-897.21l-167.83 -3.92c-13.75,174.14 -16.24,560.71 0.81,730.79 44.87,447.48 753.45,467.64 833.03,11.96 23.38,-133.79 14.4,-592.81 3.7,-741.93z"/>
    <path class="fil3" d="M12655.4 12386.64c188.17,-3.46 453.76,-41.32 455.17,166.31 1.37,203.52 -272.79,178.53 -460.09,167.78l4.92 -334.09zm-178.94 887.91l174.09 1.52 -0.95 -392.17c163.19,-5.61 332.37,21.97 468.72,-48.48 114.99,-59.41 195.16,-183.25 160.26,-351.85 -66.48,-321.12 -473.73,-273.92 -799.17,-261.72l-2.95 1052.7z"/>
    <path class="fil3" d="M11910.51 13150.95c-15.1,-69.72 -54.94,-82.28 -96.33,-120.86 -64.39,24.64 -97.42,67.08 -181.3,84.51 -542.09,112.6 -590.1,-815.47 -17.5,-736.84 96.68,13.28 137.07,54.02 201.97,80.37l96.97 -101.01c-107.27,-221.25 -873.2,-280.3 -889.24,382.26 -15.52,640.76 731.86,639.39 885.43,411.57z"/>
    <path class="fil3" d="M13324.34 12382.68l316.11 4.03 1.86 889.34c56.96,1.77 118.61,8.36 171.01,-9.56l0.93 -878.64 316.06 -1.77c18.38,-49.26 12.89,-111.8 8.93,-165.85l-810.66 0.39 -4.24 162.06z"/>
    <path class="fil2" d="M27275.92 13276.7c21.53,-66.48 14.77,-931.53 6.72,-1055.63l-167.22 1.32c-13.75,268.62 0.24,627.98 -2.61,915.43 -1.69,169.95 -17.32,145.92 163.11,138.88z"/>
    <path class="fil2" d="M12083.01 13278.14l149.68 -1.34c24.18,-63.69 18.74,-936.6 8.44,-1055.77l-163.34 0.52c-9.83,123.03 -18.08,988.39 5.22,1056.59z"/>
    <path class="fil2" d="M25707.24 13277.39l149.56 0.63c21.48,-62.82 17.82,-945.23 6.65,-1057.47l-163.07 0.47c-9.65,126.73 -18.4,985.23 6.86,1056.37z"/>
    <path class="fil4" d="M20788.89 7991.98c-21.08,-35.76 -105.2,-18.09 -145.35,-17.28 -52.95,1.07 -106.32,0.36 -159.33,0.38 -110.76,0.05 -230.06,4.09 -339.65,-1.85l4.77 -637.03 601.28 -4.47c37.69,-9.36 22.61,-3.11 39.8,-24.8l-649.63 5.69 -6.88 675.13 654.99 4.23z"/>
    <path class="fil5" d="M18759.71 13283.62c34.55,-30.82 12.38,32.2 25.58,-52l-0.56 -398.8 481.08 -3.55c-0.62,76.94 1.06,152.78 0.84,228.76 -0.13,46.15 -15.57,178.4 14.48,212.51l-4.42 -452.28c-78.32,-9.62 -451.93,-14.12 -511.97,8.17l-5.03 457.19z"/>
   </g>
   <path class="fil6" d="M4342.03 7381.05c1449.13,-260.03 2541.75,679.62 2809.34,1843.41 323.48,1406.7 -781.58,2603.19 -1910.36,2812.06 -1435.13,265.58 -2599.59,-763.07 -2810.77,-1909.43 -259.01,-1405.62 748.36,-2537.28 1911.79,-2746.04zm3879.24 -908.39l-1080.65 15.48 18.98 755.51c-247.13,-94.76 -329.45,-345.69 -991.59,-653.9 -1335.94,-621.78 -2903.12,-209.34 -3803.33,701.26 -3070.04,3105.41 1397.28,7833.9 4751.78,4897.46 1457.76,-1276.04 1081,-3459.86 1104.81,-5715.81z"/>
   <path class="fil7" d="M8391.37 10355.03c-122.49,226.35 -188.92,544.64 -307.29,797.73 -119.6,255.92 -254.94,530.14 -381.9,791.92 -298.59,615.5 -3.96,1365.05 737.26,1338.06 731.04,-26.64 967.27,-693.66 676.85,-1325.97 -98.42,-214.27 -656.64,-1532.01 -724.92,-1601.74z"/>
   <path class="fil7" d="M10117.33 5094.19c-1168.67,385.29 -661.41,2123.7 541.04,1731.98 1095.25,-356.8 575.81,-2100.2 -541.04,-1731.98z"/>
   <path class="fil7" d="M9385.47 7146.62c-1105.12,385.4 -448.07,1909.49 527.62,1524.87 904.07,-356.4 513.33,-1887.84 -527.62,-1524.87z"/>
  </g>
 </g>
</svg>
